<?xml version="1.0" standalone="no"?>
<!DOCTYPE svg PUBLIC "-//W3C//DTD SVG 20010904//EN"
 "http://www.w3.org/TR/2001/REC-SVG-20010904/DTD/svg10.dtd">
<svg version="1.0" xmlns="http://www.w3.org/2000/svg"
 width="700.000000pt" height="700.000000pt" viewBox="0 0 700.000000 700.000000"
 preserveAspectRatio="xMidYMid meet">
<metadata>
Created by potrace 1.11, written by Peter Selinger 2001-2013
</metadata>
<g transform="translate(0.000000,700.000000) scale(0.100000,-0.100000)"
fill="#000000" stroke="none">
<path d="M3265 6989 c-462 -48 -867 -201 -1240 -468 -227 -162 -458 -398 -612
-626 -87 -130 -108 -166 -183 -320 -113 -233 -196 -490 -225 -700 -3 -23 -7
-51 -10 -63 -26 -139 -26 -557 0 -694 3 -13 8 -43 11 -68 3 -25 9 -61 14 -80
5 -19 11 -46 14 -60 18 -103 90 -323 152 -465 40 -89 158 -312 173 -325 3 -3
12 -17 20 -32 8 -16 18 -28 23 -28 4 0 8 -6 8 -12 0 -7 9 -24 20 -38 184 -235
296 -358 430 -470 36 -30 67 -57 70 -60 13 -15 184 -133 257 -178 116 -71 278
-151 423 -207 131 -51 354 -111 484 -130 25 -4 46 -12 47 -19 1 -6 2 -382 3
-836 2 -779 3 -828 21 -870 41 -100 98 -160 195 -208 47 -23 67 -27 145 -26
72 0 100 4 139 22 105 48 182 137 209 242 12 45 15 200 15 869 1 447 3 815 5
817 2 2 21 6 43 9 117 17 365 84 504 137 224 87 479 234 680 395 107 86 286
264 368 368 35 44 70 89 79 99 22 27 135 202 166 256 124 219 248 560 283 776
3 20 7 46 10 58 39 204 39 624 -1 836 -13 67 -15 75 -29 140 -67 301 -205 613
-389 880 -170 245 -401 474 -652 648 -234 162 -527 294 -805 363 -120 30 -132
32 -245 49 -38 6 -83 13 -100 16 -51 9 -446 11 -520 3z"/>
</g>
</svg>
